<svg xmlns="http://www.w3.org/2000/svg" viewBox="0 0 100 100" width="192" height="192">
  <rect width="100" height="100" rx="18" fill="#F2C94C"/>
  <g transform="translate(15,15) scale(0.7)">
    <path d="M50 60c13.5 0 25 10 25 22.5C75 91.5 67.5 95 59.5 95c-3.5 0-6.5-1.3-9.5-1.3S43.5 95 40.5 95c-8 0-15.5-3.5-15.5-12.5C25 70 36.5 60 50 60Z" fill="#1A1A1A"/>
    <ellipse cx="36.5" cy="24" rx="11.5" ry="16" fill="#1A1A1A"/>
    <ellipse cx="63.5" cy="24" rx="11.5" ry="16" fill="#1A1A1A"/>
    <ellipse cx="14" cy="48" rx="10.5" ry="14" transform="rotate(-22 14 48)" fill="#1A1A1A"/>
    <ellipse cx="86" cy="48" rx="10.5" ry="14" transform="rotate(22 86 48)" fill="#1A1A1A"/>
  </g>
</svg>
